<svg xmlns="http://www.w3.org/2000/svg" viewBox="0 0 177 160.56"><title>Images &amp;amp; Frames</title><g id="continue"><polygon points="6.5 153.78 6.5 14.06 154.5 6.78 170.5 153.78 6.5 153.78" fill="#0288d1"/><path d="M61.49,45.23h0v0h0v0h0v0Z" fill="#fff"/><path d="M62.5,45a.44.44,0,0,0,.19.12.54.54,0,0,0,.62-.12.54.54,0,0,0,.16-.4.53.53,0,0,0-.16-.39A.57.57,0,0,0,62.9,44a.55.55,0,0,0-.39.16.68.68,0,0,0-.13.18.62.62,0,0,0,0,.44A.94.94,0,0,0,62.5,45Z" fill="#fff"/><polygon points="63.2 42.97 63.31 38.62 62.47 38.62 62.58 42.97 63.2 42.97" fill="#fff"/><path d="M71.1,47.4l.35-.35a.25.25,0,0,0,0-.4l-.38-.38a.25.25,0,0,0-.38,0l-.35.35c-.13.13-.14.25,0,.37l.38.38A.23.23,0,0,0,71.1,47.4Z" fill="#fff"/><path d="M72.45,47.49h.12l0,0h0l0,0,0,0,.34-.35c.14-.14.15-.27,0-.4l-.38-.38-.06-.05-.06,0h-.06a.29.29,0,0,0-.2.11l-.35.35c-.13.13-.14.25,0,.37l.38.38A.31.31,0,0,0,72.45,47.49Z" fill="#fff"/><path d="M79.08,40.21c-.12.13-.13.25,0,.36l.38.38a.24.24,0,0,0,.37,0l.35-.36a.23.23,0,0,0,0-.38l-.37-.37c-.12-.12-.24-.11-.37,0Z" fill="#fff"/><path d="M77.84,41a.24.24,0,0,0,.37,0l.35-.36a.24.24,0,0,0,0-.38l-.37-.37c-.12-.12-.24-.11-.37,0l-.35.35c-.13.13-.13.25,0,.36Z" fill="#fff"/><path d="M78.64,39.43l.13.09h.12l.13-.09.35-.35.06-.08a.11.11,0,0,0,0-.08.17.17,0,0,0,0-.07l0-.07-.06-.08L79,38.32c-.11-.11-.24-.1-.37,0l-.35.35a.23.23,0,0,0,0,.36Z" fill="#fff"/><path d="M81.05,43.39a1.25,1.25,0,0,1-.19.74.68.68,0,0,1-.59.25,1,1,0,0,1-.51-.12.72.72,0,0,1-.3-.36,1.43,1.43,0,0,1-.11-.58v-1.2h-.76v1.21a1.22,1.22,0,0,1-.23.79.82.82,0,0,1-.69.26.86.86,0,0,1-.69-.27,1.09,1.09,0,0,1-.24-.78V42.12h-.78v1.2a1,1,0,0,1-.3.8,1.36,1.36,0,0,1-.88.26h-.52a1.17,1.17,0,0,1-.86-.28,1.1,1.1,0,0,1-.3-.83V42.12h-.75v1.15a1,1,0,0,1-.34.83,1.44,1.44,0,0,1-1,.28h-.86a1.37,1.37,0,0,1-1-.6l-2.57-3.09-.51.56,1.29,1.5a1.8,1.8,0,0,1,.53,1c0,.43-.37.65-1.16.68H64.88v.76h1.78c1,0,1.62-.27,1.82-.8l0-.12.09.11a2.06,2.06,0,0,0,.7.6,1.67,1.67,0,0,0,.82.21H71a2,2,0,0,0,1.68-.71l.07-.08a1.6,1.6,0,0,0,1.5.79h.51c.87,0,1.41-.28,1.6-.84a1.16,1.16,0,0,0,1.29.84c.77,0,1.22-.3,1.34-.89a1.19,1.19,0,0,0,1.31.89,1.38,1.38,0,0,0,1.11-.42,1.89,1.89,0,0,0,.37-1.29V41.91h-.73Z" fill="#fff"/><path d="M84.93,45.14h1.2a1.61,1.61,0,0,0,1.27-.48,2.16,2.16,0,0,0,.42-1.46V41.91H87.1v1.32a1.22,1.22,0,0,1-.27.86,1,1,0,0,1-.78.29H85a1.06,1.06,0,0,1-.58-.14.94.94,0,0,1-.35-.43,1.9,1.9,0,0,1-.11-.68V38.61h-.7v4.56a2.15,2.15,0,0,0,.43,1.48A1.63,1.63,0,0,0,84.93,45.14Z" fill="#fff"/><path d="M86,46.29l-.35.35a.24.24,0,0,0,0,.39l.38.38a.26.26,0,0,0,.41,0l.34-.35a.26.26,0,0,0,0-.42l-.38-.38A.26.26,0,0,0,86,46.29Z" fill="#fff"/><path d="M94.68,44.74a1.54,1.54,0,0,0,.41-1.19c0-.81-.65-1.69-2-2.65l-.43.5.14.12.06.06-.06.05a2.83,2.83,0,0,0-1.13,2,2.73,2.73,0,0,0,0,.41c.14.72.7,1.09,1.7,1.09A1.78,1.78,0,0,0,94.68,44.74Zm-2.3-1.2a1.13,1.13,0,0,1,.1-.46,2.42,2.42,0,0,1,.31-.48,5.07,5.07,0,0,1,.52-.5l0,0,.05,0c.67.54,1,1,1,1.42a1,1,0,0,1,0,.32.9.9,0,0,1-.12.24.86.86,0,0,1-.2.18.79.79,0,0,1-.27.1,1.29,1.29,0,0,1-.35,0,1.18,1.18,0,0,1-.77-.22A.74.74,0,0,1,92.38,43.54Z" fill="#fff"/><rect x="96.5" y="38.6" width="0.68" height="6.53" fill="#fff"/><path d="M105.27,45.09a.86.86,0,0,0,.45-.33l.07-.09.06.09a.91.91,0,0,0,.87.38h.45a6.63,6.63,0,0,0,1.88-.28h0l0,0a4.32,4.32,0,0,0,2.16.52,1.91,1.91,0,0,0,.43,0,.9.9,0,0,0,.31-.15,1.43,1.43,0,0,0,.6-1.25c0-.87-.72-1.89-2.15-3.06l-.43.62,0,.06-.06,0a1.45,1.45,0,0,0-.74-.17,1.5,1.5,0,0,0-1.31.75,1.9,1.9,0,0,0-.29,1,1.23,1.23,0,0,0,.56,1.11l.21.13h-1.68a.87.87,0,0,1-.34-.05.6.6,0,0,1-.22-.16.46.46,0,0,1-.08-.27,6.2,6.2,0,0,0-.13-1.41,1.32,1.32,0,0,0-1.44-.94,1.42,1.42,0,0,0-1.44.9,4.22,4.22,0,0,0-.18,1.48q0,.45-.78.45h-.33a1.19,1.19,0,0,1-.82-.26,1.08,1.08,0,0,1-.27-.79v-1h-.74v3a1.1,1.1,0,0,1-.47,1,2.39,2.39,0,0,1-1.37.33h-.41v.74h.43a2.91,2.91,0,0,0,1.93-.51,1.86,1.86,0,0,0,.63-1.54v-.65c.16.33.52.5,1.09.5h.34a1.2,1.2,0,0,0,1-.38l.06-.08.06.09a1.45,1.45,0,0,0,1.26.43A2.1,2.1,0,0,0,105.27,45.09Zm5.23-2.93-.19-.38.31.29c.85.81,1.27,1.43,1.27,1.86a.83.83,0,0,1-.33.63.61.61,0,0,1-.43.15,3,3,0,0,1-.57-.07,4.76,4.76,0,0,1-.64-.21l-.13-.06.12-.07A1.51,1.51,0,0,0,110.7,43,1.73,1.73,0,0,0,110.5,42.16Zm-2.18,1V43.1a.13.13,0,0,0,0-.06s0,0,0-.07,0,0,0-.06,0,0,0-.07,0,0,0-.06a1.2,1.2,0,0,1,.23-.42,1.07,1.07,0,0,1,.36-.27l.11,0,.11,0h.13a.77.77,0,0,1,.34.08.61.61,0,0,1,.37.6,1.76,1.76,0,0,1-.87,1.39l0,0h0a1.38,1.38,0,0,1-.61-.47A.76.76,0,0,1,108.32,43.16Zm-4.72.21a2.05,2.05,0,0,1,.06-.46,1.08,1.08,0,0,1,.17-.34.78.78,0,0,1,.29-.21.92.92,0,0,1,.38-.07.89.89,0,0,1,.38.07.71.71,0,0,1,.27.21,1.13,1.13,0,0,1,.16.35,2,2,0,0,1,0,.46,1.36,1.36,0,0,1-.21.82.73.73,0,0,1-.63.28.86.86,0,0,1-.7-.28A1.26,1.26,0,0,1,103.6,43.37Z" fill="#fff"/><path d="M118.51,45.14h.43a1.12,1.12,0,0,0,1-.38l.06-.06.06,0a1.7,1.7,0,0,0,1.27.45,1.48,1.48,0,0,0,1.17-.43,2,2,0,0,0,.4-1.34,2.11,2.11,0,0,0-.4-1.42,1.48,1.48,0,0,0-1.2-.46,1.4,1.4,0,0,0-1.44.9,4.26,4.26,0,0,0-.18,1.48c0,.3-.25.45-.74.45h-.4a1.06,1.06,0,0,1-.58-.14.88.88,0,0,1-.35-.43,1.9,1.9,0,0,1-.11-.68V38.61h-.7v4.56a2.15,2.15,0,0,0,.43,1.48A1.63,1.63,0,0,0,118.51,45.14Zm2-2.36a.85.85,0,0,1,.3-.37,1,1,0,0,1,.5-.12.87.87,0,0,1,.37.07.71.71,0,0,1,.27.21.85.85,0,0,1,.16.33,1.6,1.6,0,0,1,.06.46,1.45,1.45,0,0,1-.22.84.74.74,0,0,1-.63.28.93.93,0,0,1-.52-.13.81.81,0,0,1-.3-.38,1.48,1.48,0,0,1-.09-.62A1.57,1.57,0,0,1,120.51,42.78Z" fill="#fff"/><path d="M130.94,41.91v1.32a1.22,1.22,0,0,1-.27.86,1,1,0,0,1-.78.29h-1.1a1.06,1.06,0,0,1-.58-.14.88.88,0,0,1-.35-.43,1.7,1.7,0,0,1-.11-.68V38.61h-.7v4.56a2.2,2.2,0,0,0,.42,1.48,1.67,1.67,0,0,0,1.3.49H130a1.62,1.62,0,0,0,1.28-.48,2.16,2.16,0,0,0,.42-1.46V41.91Z" fill="#fff"/><path d="M129.84,47.41a.26.26,0,0,0,.41,0l.34-.35a.26.26,0,0,0,0-.42l-.38-.38a.26.26,0,0,0-.4,0l-.35.35a.24.24,0,0,0,0,.39Z" fill="#fff"/><path d="M49.49,64.9a1.37,1.37,0,0,1-.29,0,1.66,1.66,0,0,1-.92-.46,1.61,1.61,0,0,1-.7-1.28.34.34,0,0,1,0-.1.31.31,0,0,1,0-.1s0-.06,0-.09a.44.44,0,0,0,0-.1.36.36,0,0,1,0-.09l0-.09,0-.09,0-.08.05-.08a1.76,1.76,0,0,1,.34-.33,1.36,1.36,0,0,1,.42-.2,1.88,1.88,0,0,1,.49-.06,2.14,2.14,0,0,1,.8.14,2.25,2.25,0,0,1,.7.43l.38-.7a2.36,2.36,0,0,0-.31-.32,2.71,2.71,0,0,0-.35-.24,2.22,2.22,0,0,0-.38-.18,1.84,1.84,0,0,0-.42-.1,2.15,2.15,0,0,0-.45,0,2.32,2.32,0,0,0-1.75.69,2.38,2.38,0,0,0-.74,1.74,2.63,2.63,0,0,0,.05.49,2.07,2.07,0,0,0,.17.45,2.13,2.13,0,0,0,.27.42,2.36,2.36,0,0,0,.38.4l.19.17H42s0,0,0,0v.16a1.68,1.68,0,0,0,.06.27.89.89,0,0,0,.17.39.28.28,0,0,0,.21.11h1.69v.54a1.08,1.08,0,0,1-.69,1,4.92,4.92,0,0,1-2,.33H41a2.91,2.91,0,0,1-2-.62,2.3,2.3,0,0,1-.68-1.82V63.49h-1v2.08a3.32,3.32,0,0,0,.91,2.56A3.87,3.87,0,0,0,41,69h.31a5.29,5.29,0,0,0,2.76-.57A2,2,0,0,0,45,66.7v-.59h2.39A10.49,10.49,0,0,0,49.2,66a15.33,15.33,0,0,0,2-.48v-1L50,64.79Z" fill="#fff"/><path d="M63.08,58.93l-.45.45q-.26.25,0,.48l.5.5a.31.31,0,0,0,.49,0l.46-.46a.33.33,0,0,0,0-.52l-.5-.49C63.42,58.74,63.26,58.75,63.08,58.93Z" fill="#fff"/><path d="M65.18,60.36a.48.48,0,0,0,.17.11.2.2,0,0,0,.15,0l.06,0,0,0,0,0,.06-.06.45-.45a.32.32,0,0,0,0-.52l-.49-.49-.08-.06-.08,0h-.08a.42.42,0,0,0-.26.15l-.45.45q-.25.25,0,.48Z" fill="#fff"/><path d="M70.81,67.58c-.16-.16-.33-.15-.52,0l-.45.45q-.27.27,0,.51l.5.49a.32.32,0,0,0,.52,0l.46-.45a.34.34,0,0,0,0-.54Z" fill="#fff"/><path d="M73.7,62.5l-1.9-1a2.56,2.56,0,0,0-1.24-.31,2.65,2.65,0,0,0-1.6.65l-.85.66.62.7.92-.7a1.6,1.6,0,0,1,1-.33,2.15,2.15,0,0,1,1,.28l1.4.73.5.26.08,0,0,.08a.1.1,0,0,1,0,.06.35.35,0,0,1-.11.07l-.13.08-.21.1-.23.11-1.08.55a5.38,5.38,0,0,1-2.49.6h-2a1.62,1.62,0,0,1-1.13-.37,1.46,1.46,0,0,1-.38-1.08V62.2h-1v1.49a1.35,1.35,0,0,1-.44,1.08,1.93,1.93,0,0,1-1.26.37H61.82a1.4,1.4,0,0,1-.44-.07.67.67,0,0,1-.28-.21.58.58,0,0,1-.11-.35,8.7,8.7,0,0,0-.17-1.84A1.73,1.73,0,0,0,59,61.45a1.85,1.85,0,0,0-1.88,1.17,5.68,5.68,0,0,0-.23,1.93c0,.39-.34.59-1,.59h-.46a1.44,1.44,0,0,1-.75-.19,1.17,1.17,0,0,1-.45-.55,2.39,2.39,0,0,1-.15-.9V57.63H53.1v5.93a2.85,2.85,0,0,0,.56,1.93,2.15,2.15,0,0,0,1.68.62h.5a1.57,1.57,0,0,0,1.35-.48l.08-.11.08.12A1.9,1.9,0,0,0,59,66.2a3.06,3.06,0,0,0,1-.14,1.17,1.17,0,0,0,.59-.44l.09-.12.07.13a1.21,1.21,0,0,0,1.13.48h1.2a2.56,2.56,0,0,0,2.19-.91l.09-.1a2.05,2.05,0,0,0,1.94,1h2a6.53,6.53,0,0,0,3-.73l1-.52a4.14,4.14,0,0,0,1-.68.91.91,0,0,0,.34-.63.79.79,0,0,0-.24-.52A2.7,2.7,0,0,0,73.7,62.5ZM59.82,64.9a.93.93,0,0,1-.82.36,1.1,1.1,0,0,1-.91-.37,1.61,1.61,0,0,1-.29-1.07,2.11,2.11,0,0,1,.09-.6,1.21,1.21,0,0,1,.22-.44,1.09,1.09,0,0,1,.36-.28,1.36,1.36,0,0,1,.51-.09,1.26,1.26,0,0,1,.49.09,1.06,1.06,0,0,1,.35.28,1.34,1.34,0,0,1,.21.45,2.64,2.64,0,0,1,.06.6A1.82,1.82,0,0,1,59.82,64.9Z" fill="#fff"/><rect x="76.47" y="57.62" width="0.89" height="8.49" fill="#fff"/><path d="M87.6,64.34A2.41,2.41,0,0,1,88,63a1.19,1.19,0,0,1,1-.47H90.4v-1H89.24a3,3,0,0,0-1.44.32,2,2,0,0,0-.86,1,4,4,0,0,0-.29,1.63v.41a1,1,0,0,0,.24.73,1.08,1.08,0,0,0,.77.23h1.21a.55.55,0,0,1,.6.6v.08c0,1-.94,1.54-2.8,1.54h-.32a3,3,0,0,1-2-.62,2.35,2.35,0,0,1-.68-1.83V63h-.95v2.53a3.33,3.33,0,0,0,.91,2.57,3.87,3.87,0,0,0,2.75.85h.28a4.94,4.94,0,0,0,2.84-.66,2.27,2.27,0,0,0,.93-2v-.18a1.74,1.74,0,0,0-.14-.74.92.92,0,0,0-.44-.43,1.6,1.6,0,0,0-.74-.14H87.59v-.49Z" fill="#fff"/><path d="M99.35,60.59l-.55.81,0,.07-.07,0a2,2,0,0,0-2.66.75,2.36,2.36,0,0,0-.38,1.34A1.58,1.58,0,0,0,96.36,65l.27.18H94.52a1.44,1.44,0,0,1-.75-.19,1.17,1.17,0,0,1-.45-.55,2.39,2.39,0,0,1-.15-.9V57.63h-.91v5.93a2.85,2.85,0,0,0,.55,1.93,2.18,2.18,0,0,0,1.69.62h.58a8.55,8.55,0,0,0,2.45-.36h0l0,0a5.54,5.54,0,0,0,2.8.69,2.34,2.34,0,0,0,.56-.06,1.42,1.42,0,0,0,.41-.19,1.87,1.87,0,0,0,.78-1.63C102.15,63.44,101.22,62.12,99.35,60.59Zm-1.67,4.17,0,0,0,0a1.72,1.72,0,0,1-.8-.6,1,1,0,0,1-.21-.63v-.08a.25.25,0,0,1,0-.08s0-.05,0-.08a.19.19,0,0,1,0-.08.29.29,0,0,1,0-.09.19.19,0,0,0,0-.08,1.7,1.7,0,0,1,.3-.55,1.24,1.24,0,0,1,.47-.34l.14,0,.15,0h.17a1,1,0,0,1,.44.1.81.81,0,0,1,.48.78A2.29,2.29,0,0,1,97.68,64.76Zm3.1.61a.82.82,0,0,1-.56.18,3.28,3.28,0,0,1-.74-.08,4.9,4.9,0,0,1-.82-.27l-.17-.08.15-.09a2,2,0,0,0,1-1.73,2.27,2.27,0,0,0-.25-1.06l-.25-.49.4.38c1.1,1,1.65,1.86,1.65,2.42A1.07,1.07,0,0,1,100.78,65.37Z" fill="#fff"/><path d="M118.56,67.58c-.16-.16-.33-.15-.52,0l-.45.45a.32.32,0,0,0,0,.51l.49.49a.33.33,0,0,0,.53,0l.45-.45a.34.34,0,0,0,0-.54Z" fill="#fff"/><path d="M130.55,63.84a1.64,1.64,0,0,1-.26,1,.91.91,0,0,1-.76.33,1.24,1.24,0,0,1-.66-.17,1,1,0,0,1-.4-.46,2.1,2.1,0,0,1-.14-.76V62.19h-1v1.58a1.55,1.55,0,0,1-.3,1,1.12,1.12,0,0,1-.89.35,1.21,1.21,0,0,1-.91-.36,1.45,1.45,0,0,1-.31-1V62.19h-1v1.57a1.33,1.33,0,0,1-.39,1,1.67,1.67,0,0,1-1.14.35h-.68a1.59,1.59,0,0,1-1.12-.37,1.43,1.43,0,0,1-.39-1.08V62.2h-1v1.49a1.35,1.35,0,0,1-.43,1.08,1.93,1.93,0,0,1-1.26.37H116.3c-.4,0-.9-.36-1.51-1L111.16,60l-.1-.11.14,0,3.55-1.16v-1l-3.86,1.27a1.05,1.05,0,0,0-.3.15.8.8,0,0,0-.21.2.71.71,0,0,0-.13.26,1,1,0,0,0,0,.32,1.24,1.24,0,0,0,.27.81l2,2.32a2.39,2.39,0,0,1,.73,1.21c0,.63-.56.94-1.67.94h-2.14a1.68,1.68,0,0,1-.7-.14,1.16,1.16,0,0,1-.47-.41,1.66,1.66,0,0,1-.22-.67l-.4-3.35-.89.1,0,.24V61l-.09,0c-2.09.33-3.14,1.12-3.14,2.36v.08s0,0,0,.07v.08a.17.17,0,0,0,0,.07,1.88,1.88,0,0,0,.2.67,1.32,1.32,0,0,0,.4.48,1.81,1.81,0,0,0,.61.28,3.43,3.43,0,0,0,.83.1,5.49,5.49,0,0,0,.83-.06,6.33,6.33,0,0,0,.78-.17l.07,0,0,.06a1.93,1.93,0,0,0,.83.82,2.77,2.77,0,0,0,1.27.27h2.12c1.37,0,2.2-.4,2.47-1.22l0-.17.12.15a2.61,2.61,0,0,0,2.15,1.24h1.12a2.59,2.59,0,0,0,2.19-.91l.08-.1a2.06,2.06,0,0,0,2,1h.67c1.13,0,1.83-.36,2.08-1.09a1.51,1.51,0,0,0,1.68,1.09c1,0,1.58-.38,1.74-1.15a1.54,1.54,0,0,0,1.71,1.15,1.83,1.83,0,0,0,1.44-.54,2.55,2.55,0,0,0,.47-1.68v-2h-.94ZM107.1,64a4.69,4.69,0,0,1-.67.17,4.59,4.59,0,0,1-.76.06,1.53,1.53,0,0,1-.87-.21.75.75,0,0,1-.3-.65c0-.7.78-1.19,2.32-1.45l.1,0V62l.23,1.9V64Z" fill="#fff"/><path d="M128.44,59.26l-.46.45a.3.3,0,0,0,0,.47l.49.49a.31.31,0,0,0,.49,0l.45-.46a.31.31,0,0,0,0-.5l-.49-.48Q128.7,59,128.44,59.26Z" fill="#fff"/><path d="M127.42,58.7a.66.66,0,0,0,.16.11.22.22,0,0,0,.16,0,.51.51,0,0,0,.16-.11l.46-.46.08-.1a.21.21,0,0,0,0-.1.34.34,0,0,0,0-.1.36.36,0,0,0,0-.09.39.39,0,0,0-.08-.1l-.49-.49c-.15-.15-.3-.14-.47,0l-.46.46a.29.29,0,0,0,0,.46Z" fill="#fff"/><path d="M126.37,60.67a.3.3,0,0,0,.48,0l.46-.46a.31.31,0,0,0,0-.5l-.49-.48c-.14-.15-.3-.14-.47,0l-.46.45c-.16.17-.17.32,0,.47Z" fill="#fff"/></g></svg>