<svg id="Layer_3" data-name="Layer 3" xmlns="http://www.w3.org/2000/svg" viewBox="0 0 64 64"><title>Footer</title><path d="M10.75,21.45A3.51,3.51,0,0,0,7.24,25v6.23h7V25A3.51,3.51,0,0,0,10.75,21.45Z" fill="#cacaca"/><path d="M39.32,21.46A3.5,3.5,0,0,1,42.83,25V53.22h-25a3.51,3.51,0,0,1-3.51-3.52V25a3.5,3.5,0,0,0-3.45-3.5Z" fill="#f3f3f3"/><path d="M21.28,46v3.7a3.51,3.51,0,0,1-3.51,3.51H42.68a3.51,3.51,0,0,0,3.51-3.52V46Z" fill="#cacaca"/><path d="M18.86,28.21a1.35,1.35,0,0,1,1.35-1.34H37.27a1.35,1.35,0,0,1,0,2.69H20.21A1.34,1.34,0,0,1,18.86,28.21Z" fill="#cacaca"/><path d="M18.86,34.63a1.35,1.35,0,0,1,1.35-1.35H37.27a1.35,1.35,0,0,1,0,2.69H20.21A1.34,1.34,0,0,1,18.86,34.63Z" fill="#cacaca"/><path d="M26.28,41a1.34,1.34,0,0,1,1.35-1.35h9.64a1.35,1.35,0,0,1,0,2.7H27.63A1.35,1.35,0,0,1,26.28,41Z" fill="#cacaca"/><path d="M31.15,49.61a1.35,1.35,0,0,1,1.34-1.35h9.64a1.35,1.35,0,0,1,0,2.7H32.49A1.35,1.35,0,0,1,31.15,49.61Z" fill="#d3d3d3"/><path d="M11.67,23.78a1.34,1.34,0,0,0-1.35,1.35V28.6a1.35,1.35,0,1,0,2.69,0V25.13A1.34,1.34,0,0,0,11.67,23.78Z" fill="#d3d3d3"/><path d="M56.76,11.13l0,0L42.84,23.86l-6.93.54,4,1.64s-3.62,3.71-8.11,2.17a2.45,2.45,0,0,1-.57-.21c-.07,0,.17.09-.28-.14C29.72,18.51,36.94,8.82,56.76,11.13Z" fill="#3aa2eb"/><path d="M56.76,11.13l0,0c-13.54-.7-24.17,11.33-25,17A4.28,4.28,0,0,0,32.08,31L29.29,36a28.09,28.09,0,0,1,1.61-8.11C35.42,14.82,49,9.37,56.76,11.13Z" fill="#777"/></svg>