<svg id="Layer_3" data-name="Layer 3" xmlns="http://www.w3.org/2000/svg" viewBox="0 0 128 128"><title>Our Story</title><path d="M81.18,45.87l-1-.93,0,0a24.89,24.89,0,0,0-25.6-4.13h0l-.66.3A25,25,0,0,0,39.57,58.88V59h0v0l-.17.77h0A25.68,25.68,0,0,0,39,64a24.85,24.85,0,0,0,8.81,19h0l.65.51a24.81,24.81,0,0,0,24.41,3.8l.67-.26v0a24.49,24.49,0,0,0,15.2-19.8l.06,0,.11-1.38c.06-.7.1-1.28.1-1.91A24.78,24.78,0,0,0,81.18,45.87ZM64,41.14a22.75,22.75,0,0,1,15.07,5.7,30,30,0,0,1-12.21,11A63.93,63.93,0,0,0,56.2,42.52,22.53,22.53,0,0,1,64,41.14Zm-9.91,2.27A61.58,61.58,0,0,1,64.91,58.7a30,30,0,0,1-23.09-.22A22.91,22.91,0,0,1,54.09,43.41ZM41.14,64a24,24,0,0,1,.25-3.38,32.19,32.19,0,0,0,24.44,0c.59,1.29,1.15,2.64,1.67,4A32.09,32.09,0,0,0,48.74,81,22.73,22.73,0,0,1,41.14,64ZM64,86.86a22.6,22.6,0,0,1-13.56-4.47A30,30,0,0,1,68.21,66.67,61.79,61.79,0,0,1,71.42,85.6,22.55,22.55,0,0,1,64,86.86Zm9.54-2.1a63.7,63.7,0,0,0-3.27-18.68,30.11,30.11,0,0,1,16.41.49A22.3,22.3,0,0,1,73.54,84.76ZM86.86,64.38a32.06,32.06,0,0,0-17.3-.33v0h0c-.54-1.46-1.13-2.89-1.75-4.26h0v0a32,32,0,0,0,12.84-11.4A22.63,22.63,0,0,1,86.86,64Z" fill="#757575"/><path d="M64,126.5A62.5,62.5,0,1,1,126.5,64,62.57,62.57,0,0,1,64,126.5ZM64,3.71A60.29,60.29,0,1,0,124.29,64,60.35,60.35,0,0,0,64,3.71Z" fill="#bdbdbd"/></svg>