<svg id="Layer_3" data-name="Layer 3" xmlns="http://www.w3.org/2000/svg" viewBox="0 0 128 128"><title>Our Story</title><path d="M64,126.5A62.5,62.5,0,1,1,126.5,64,62.57,62.57,0,0,1,64,126.5ZM64,3.71A60.29,60.29,0,1,0,124.29,64,60.35,60.35,0,0,0,64,3.71Z" fill="#bdbdbd"/><path d="M55.83,66.14c-2.5,0-4.54,2.44-4.54,5.44s2,5.44,4.54,5.44,4.54-2.44,4.54-5.44S58.33,66.14,55.83,66.14Zm0,9.07c-1.5,0-2.72-1.63-2.72-3.63S54.33,68,55.83,68s2.72,1.63,2.72,3.63S57.33,75.21,55.83,75.21Z" fill="#757575"/><path d="M73.07,66.14c-2.5,0-4.54,2.44-4.54,5.44s2,5.44,4.54,5.44,4.53-2.44,4.53-5.44S75.57,66.14,73.07,66.14Zm0,9.07c-1.5,0-2.72-1.63-2.72-3.63S71.57,68,73.07,68s2.72,1.63,2.72,3.63S74.57,75.21,73.07,75.21Z" fill="#757575"/><path d="M74.45,61.6h-.13c-.84,0-1.68,0-2.53.08l-2.29.08-1.33,0c-2.31.05-4.7.09-7,.09-1.07,0-2.13-.05-3.2-.09-1.45,0-2.95-.11-4.43-.07a7.65,7.65,0,0,0-5.16,2h0c-2.26,2.08-3.19,4.84-2.86,8.43.5,5.21,2.6,7.87,7.26,9.19a38.75,38.75,0,0,0,11.18,1.16h2.23l1.38,0A29.68,29.68,0,0,0,76.28,81,8.57,8.57,0,0,0,82,75.35a13.18,13.18,0,0,0,.62-6C82.14,66.09,79.33,61.6,74.45,61.6Zm5.79,13.19a6.75,6.75,0,0,1-4.55,4.45,27.79,27.79,0,0,1-8.21,1.39c-.81,0-1.62,0-2.42,0H63.92a37.59,37.59,0,0,1-10.67-1.09c-3.92-1.11-5.53-3.18-6-7.62-.28-3,.47-5.25,2.28-6.92a5.91,5.91,0,0,1,4-1.48c1.43,0,2.9,0,4.32.07,1.09,0,2.17.09,3.26.09,2.36,0,4.76,0,7.08-.09l1.32,0c.78,0,1.56,0,2.34-.07s1.65-.07,2.48-.09h.1c3.74,0,6,3.65,6.33,6.15A11.34,11.34,0,0,1,80.24,74.79Z" fill="#757575"/><path d="M86.06,55.84a2.55,2.55,0,0,1-.71-2,21.8,21.8,0,0,0-.29-5l0-.1a23.29,23.29,0,0,0-1.69-6.19l-.29-.69-1.34.29A18.06,18.06,0,0,0,76.17,44c-1.16.67-2.32,1.39-3.44,2.08-.75.47-1.5.93-2.26,1.38a.34.34,0,0,1-.14,0h0a37.37,37.37,0,0,0-12.53,0,.7.7,0,0,1-.36-.1c-.47-.28-.93-.58-1.38-.88s-1.06-.7-1.6-1a23.2,23.2,0,0,0-8.85-3.43L44.94,42l-.35.76c-.06.14-.12.26-.17.39a29,29,0,0,0-1.74,8.24,14.23,14.23,0,0,0,0,3.06c.05.35,0,.41-.13.58a15.54,15.54,0,0,0-2.67,4.87,22,22,0,0,0-.55,10.28,19.48,19.48,0,0,0,2.7,8c2.9,4.54,7.37,7.1,13.29,7.61,3,.25,6,.29,8.91.29h4.37a25.49,25.49,0,0,0,9.57-1.57,15.6,15.6,0,0,0,9.67-10.6,28.4,28.4,0,0,0,1.13-9A16,16,0,0,0,86.06,55.84Zm.06,17.56a13.73,13.73,0,0,1-8.6,9.43,23.39,23.39,0,0,1-8.9,1.44H66.13c-3.5,0-7.12,0-10.64-.28-5.41-.46-9.31-2.68-11.92-6.78a17.81,17.81,0,0,1-2.43-7.32,20,20,0,0,1,.48-9.45A13.48,13.48,0,0,1,44,56.15a2.37,2.37,0,0,0,.51-2,13.57,13.57,0,0,1,0-2.78A27,27,0,0,1,46.05,44a22.75,22.75,0,0,1,7.49,3.09c.51.31,1,.64,1.52,1s.95.63,1.45.92a2.46,2.46,0,0,0,1.58.34A35.38,35.38,0,0,1,70,49.3,2.13,2.13,0,0,0,71.4,49c.77-.46,1.52-.93,2.28-1.4,1.13-.69,2.25-1.39,3.4-2A16.25,16.25,0,0,1,82,44a21.34,21.34,0,0,1,1.28,5l0,.1a20.31,20.31,0,0,1,.28,4.57,4.34,4.34,0,0,0,1,3.21A14.06,14.06,0,0,1,87.17,65,26.54,26.54,0,0,1,86.12,73.4Z" fill="#757575"/></svg>