<svg id="Layer_3" data-name="Layer 3" xmlns="http://www.w3.org/2000/svg" viewBox="0 0 128 128"><title>Our Story</title><path d="M80.74,43.89H75.52a2.83,2.83,0,0,0-2.82,2.83v5.22a2.82,2.82,0,0,0,2.82,2.82h5.22a2.83,2.83,0,0,0,2.83-2.82V46.72A2.83,2.83,0,0,0,80.74,43.89Zm.65,8a.6.6,0,0,1-.56.68H75.61a.76.76,0,0,1-.74-.68V46.69a.71.71,0,0,1,.74-.62h5.22a.55.55,0,0,1,.56.62Z" fill="#757575"/><path d="M78.4,39.54H49.73A10.74,10.74,0,0,0,39,50.2V77.76a10.77,10.77,0,0,0,10.73,10.7H78.4A10.65,10.65,0,0,0,89,77.76V50.2A10.62,10.62,0,0,0,78.4,39.54Zm8.43,38.22a8.48,8.48,0,0,1-8.43,8.52H49.73a8.59,8.59,0,0,1-8.56-8.52V60.2H54.73A13.43,13.43,0,0,0,50,70.51a13.59,13.59,0,0,0,27.17,0A13.43,13.43,0,0,0,72.36,60.2H86.83V77.76ZM63.55,59.09A11.41,11.41,0,1,1,52.13,70.5,11.42,11.42,0,0,1,63.55,59.09ZM86.83,58h-18a11.81,11.81,0,0,0-5.32-1.09A11.85,11.85,0,0,0,58.22,58h-17V50.2a8.55,8.55,0,0,1,8.56-8.48H78.4a8.44,8.44,0,0,1,8.43,8.48V58Z" fill="#757575"/><path d="M63.55,62.35A8.15,8.15,0,1,0,71.7,70.5,8.15,8.15,0,0,0,63.55,62.35Zm0,14.13a6,6,0,1,1,6-6A6,6,0,0,1,63.55,76.48Z" fill="#757575"/><path d="M64,126.5A62.5,62.5,0,1,1,126.5,64,62.57,62.57,0,0,1,64,126.5ZM64,3.71A60.29,60.29,0,1,0,124.29,64,60.35,60.35,0,0,0,64,3.71Z" fill="#bdbdbd"/></svg>