<svg id="Layer_3" data-name="Layer 3" xmlns="http://www.w3.org/2000/svg" viewBox="0 0 128 128"><title>Our Story</title><path d="M39,55.09V89.34H51.33V55.09ZM48.59,86.6H41.74V57.83h6.85V86.6Z" fill="#757575"/><path d="M45,38.66A5.65,5.65,0,1,0,44.92,50a6.07,6.07,0,0,0,4.34-1.64,5.49,5.49,0,0,0,1.64-4A5.58,5.58,0,0,0,45,38.66Zm2.32,7.69a3.41,3.41,0,0,1-2.43.86,2.86,2.86,0,0,1-3.07-2.9A2.89,2.89,0,0,1,45,41.4a2.85,2.85,0,0,1,3.13,2.91A2.79,2.79,0,0,1,47.35,46.35Z" fill="#757575"/><path d="M76.2,55.1a12.47,12.47,0,0,0-8,2.47L68,55.09H56.81V89.34h11v-18a10.2,10.2,0,0,1,.47-2.6c1.12-2.42,2.68-2.42,5.12-2.42a5.39,5.39,0,0,1,5,5.52V89.34H89V70C89,59.77,82.38,55.1,76.2,55.1ZM86.26,86.6H81.12V71.85c0-4.48-3.59-8.26-7.76-8.26-2.65,0-5.7,0-7.56,4A12,12,0,0,0,65,71.35V86.6H59.55V57.83h5.93l.42,4.11h2.18l.4-.65c.64-1,2.65-3.45,7.72-3.45,4.86,0,10.06,3.81,10.06,12.19V86.6Z" fill="#757575"/><path d="M64,126.5A62.5,62.5,0,1,1,126.5,64,62.57,62.57,0,0,1,64,126.5ZM64,3.71A60.29,60.29,0,1,0,124.29,64,60.35,60.35,0,0,0,64,3.71Z" fill="#bdbdbd"/></svg>