<svg id="Layer_3" data-name="Layer 3" xmlns="http://www.w3.org/2000/svg" viewBox="0 0 128 128"><title>Our Story</title><path d="M64,126.5A62.5,62.5,0,1,1,126.5,64,62.57,62.57,0,0,1,64,126.5ZM64,3.71A60.29,60.29,0,1,0,124.29,64,60.35,60.35,0,0,0,64,3.71Z" fill="#bdbdbd"/><path d="M39.88,63.11l11.52,4.3,4.46,14.34A1.36,1.36,0,0,0,58,82.4l6.42-5.24a1.91,1.91,0,0,1,2.33-.06l11.59,8.41a1.36,1.36,0,0,0,2.13-.82L89,43.87a1.36,1.36,0,0,0-1.82-1.54L39.87,60.57A1.36,1.36,0,0,0,39.88,63.11Zm15.26,2L77.66,51.25a.39.39,0,0,1,.47.62L59.55,69.15a3.84,3.84,0,0,0-1.19,2.3l-.63,4.69a.58.58,0,0,1-1.14.08l-2.44-8.55A2.28,2.28,0,0,1,55.14,65.12Z" fill="#757575"/></svg>