<svg id="Layer_3" data-name="Layer 3" xmlns="http://www.w3.org/2000/svg" viewBox="0 0 128 128"><title>Our Story</title><path d="M88.55,48.12a1,1,0,0,0-1.19,0,5,5,0,0,1-1.57.69c1.78-2.08,1.82-3.47,1.79-3.8A1,1,0,0,0,86,44.28a10,10,0,0,1-5.55,1.93,10.52,10.52,0,0,0-7.3-2.93A10.76,10.76,0,0,0,62.45,54.1a11.6,11.6,0,0,0,.09,1.44c-10-.17-18.2-9.79-18.29-9.89a1,1,0,0,0-1.66.15,10.71,10.71,0,0,0,.63,11.84c-.18-.1-.32-.2-.43-.27a1,1,0,0,0-1.62.8,10.36,10.36,0,0,0,4.26,9,1,1,0,0,0-.61.32,1,1,0,0,0-.23,1,10.15,10.15,0,0,0,7.46,7.18c-4.81,3.63-11.77,2.45-11.85,2.43a1,1,0,0,0-.8,1.82c5.12,3.91,11.25,4.78,15.68,4.78a30.17,30.17,0,0,0,6-.55c22.32-5.29,23-25.69,23-29.17,4.19-3.9,4.85-5.39,4.95-5.76A1,1,0,0,0,88.55,48.12Zm-6.26,5.7a1,1,0,0,0-.33.82,29.61,29.61,0,0,1-2.12,11.74c-3.29,8.24-9.78,13.55-19.26,15.8C60.47,82.2,51.7,84,44,80.35c3.3-.13,7.86-1.06,11.07-4.66a1.1,1.1,0,0,0,.17-1.14,1.08,1.08,0,0,0-.94-.63h0a8.24,8.24,0,0,1-7.15-4.52A6.37,6.37,0,0,0,50,69a1,1,0,0,0,.58-1,1,1,0,0,0-.8-.88A8.49,8.49,0,0,1,43.31,60a5.51,5.51,0,0,0,2.88.46,1,1,0,0,0,.52-1.78c-.23-.2-5.31-4.71-3-10.54,2.75,2.86,10.59,10,20.1,9.45a1,1,0,0,0,.76-.42,1,1,0,0,0,.17-.85,8.94,8.94,0,0,1-.27-2.19,8.71,8.71,0,0,1,8.63-8.77,8.49,8.49,0,0,1,6.15,2.61,1,1,0,0,0,.72.31,12,12,0,0,0,4.25-.74A16.39,16.39,0,0,1,82,49.64a1,1,0,0,0,.71,1.82,21.31,21.31,0,0,0,2.38-.34C84.38,51.83,83.48,52.72,82.29,53.82Z" fill="#757575"/><path d="M64,126.5A62.5,62.5,0,1,1,126.5,64,62.57,62.57,0,0,1,64,126.5ZM64,3.71A60.29,60.29,0,1,0,124.29,64,60.35,60.35,0,0,0,64,3.71Z" fill="#bdbdbd"/></svg>