<svg id="Layer_1" data-name="Layer 1" xmlns="http://www.w3.org/2000/svg" viewBox="0 0 150 150"><defs><style>.cls-1{fill:#3a556a;}.cls-2{fill:#64798a;}</style></defs><title>Untitled-1</title><path class="cls-1" d="M119.39,145a2.78,2.78,0,0,1-2-.82L77.85,104.62a2.8,2.8,0,0,1,1.69-4.76,44.75,44.75,0,0,0,23.72-79.21A44.75,44.75,0,0,0,30.47,59.71a2.8,2.8,0,1,1-5.57.54,50.33,50.33,0,1,1,60.79,44.3l35.67,35.68a2.8,2.8,0,0,1-2,4.77Z"/><path class="cls-2" d="M84.22,50c-12.68,1-27,3.35-38.27,9.09,0,0-19.13,8.61-20.81,46.4a97.57,97.57,0,0,0,.24,14.36V145l2.39-4.31S25.62,115.34,44.52,118c0,0,2.63-8.85-10.29-8.85,0,0,4.55-6.46,12-5.26a22.3,22.3,0,0,0,17.46-9.57S49.54,95,46.43,91.9c0,0,25.11,6.46,55.49-34.92,0,0,4.07-5.74,12.92-7.18C114.84,50.28,101,48.85,84.22,50Z"/><path class="cls-1" d="M94.74,50C55.76,63,40.93,90.7,35.91,105.53c1.67-38,20.8-46.4,20.8-46.4C67.72,53.39,82.07,51,94.74,50Z"/></svg>