<svg xmlns="http://www.w3.org/2000/svg" viewBox="0 0 100 100"><defs><style>.cls-1{isolation:isolate;}.cls-2{fill:#fafafa;mix-blend-mode:multiply;}.cls-3{fill:#fdd835;}.cls-4{fill:#757575;}</style></defs><title>Icons</title><g class="cls-1"><g id="Story_Item_2" data-name="Story Item 2"><path class="cls-2" d="M73.61,25.39C64.69,20,61.49,27.27,55.4,31.87c-7.23,5.47-11.62,1.7-19.93.88-9.88-1-18.64,8.89-18.48,18.82s7.48,18.73,16.45,23c5.53,2.62,13.26,3.24,16.74-1.8,2.48-3.6,1.81-8.88,4.8-12.06S63.43,58,67.91,58.83C87.66,62.42,86.36,33.16,73.61,25.39Z"/><path class="cls-3" d="M73.61,25.39C64.69,20,61.49,27.27,55.4,31.87c-7.23,5.47-11.62,1.7-19.93.88-9.88-1-18.64,8.89-18.48,18.82s7.48,18.73,16.45,23c5.53,2.62,13.26,3.24,16.74-1.8,2.48-3.6,1.81-8.88,4.8-12.06S63.43,58,67.91,58.83C87.66,62.42,86.36,33.16,73.61,25.39Z"/><path id="ic_apps_24px" data-name="ic apps 24px" class="cls-4" d="M38.08,44h6v-6h-6ZM47,61.92h6V56H47Zm-8.94,0h6V56h-6Zm0-8.94h6V47h-6ZM47,53h6V47H47ZM56,38.08v6h6v-6ZM47,44h6v-6H47ZM56,53h6V47H56Zm0,8.94h6V56H56Z"/></g></g></svg>