<svg xmlns="http://www.w3.org/2000/svg" viewBox="0 0 100 100"><defs><style>.cls-1{fill:#424242;}</style></defs><title>Icons</title><g id="Create"><path class="cls-1" d="M41.88,46.48l-1.46,5.61a1.5,1.5,0,0,0,.39,1.42,1.48,1.48,0,0,0,1,.43,1.57,1.57,0,0,0,.37,0l5.61-1.46a1.49,1.49,0,0,0,.68-.39L68.9,31.67a1.48,1.48,0,0,0,0-2.09l-4.15-4.15a1.52,1.52,0,0,0-2.1,0l-3.29,3.3h-.24V29L42.27,45.81A1.51,1.51,0,0,0,41.88,46.48Zm20.5-16.6,1.32-1.32,2.06,2.06-1.33,1.32ZM43.92,50.4l.72-2.78L60.29,32,62.35,34,46.7,49.68Z"/><path class="cls-1" d="M67.85,36.58a1.48,1.48,0,0,0-1.48,1.48V72H33.63V31.95H53a1.48,1.48,0,0,0,0-3H32.15a1.48,1.48,0,0,0-1.48,1.48V73.52A1.48,1.48,0,0,0,32.15,75H67.85a1.48,1.48,0,0,0,1.48-1.48V38.06A1.48,1.48,0,0,0,67.85,36.58Z"/></g></svg>