<svg xmlns="http://www.w3.org/2000/svg" viewBox="0 0 100 100"><defs><style>.cls-1{isolation:isolate;}.cls-2{fill:#fafafa;mix-blend-mode:multiply;}.cls-3{fill:#fdd835;}.cls-4{fill:#757575;}</style></defs><title>Icons</title><g class="cls-1"><g id="Story_Item_3" data-name="Story Item 3"><path class="cls-2" d="M25.44,81.33A16.31,16.31,0,0,0,40.79,81c7-4,10.89-13.17,18.81-14.65C64.37,65.48,69.5,67.72,74,66c19.92-7.55,4.16-59.49-22.67-47.26C35.81,25.84,1,68.63,25.44,81.33Z"/><path class="cls-3" d="M25.44,81.33A16.31,16.31,0,0,0,40.79,81c7-4,10.89-13.17,18.81-14.65C64.37,65.48,69.5,67.72,74,66c19.92-7.55,4.16-59.49-22.67-47.26C35.81,25.84,1,68.63,25.44,81.33Z"/><path class="cls-4" d="M18.86,58.07v.15l0,0h-.07l0,0h-.07a.12.12,0,0,1,0,0v0l0,0,0,0h-.12l0,0,0,0v-.08s0,0,0,0v-.06h0v.08h0v0h0v0h0v0h.1l0,0,0,0a.1.1,0,0,0,0,0,.06.06,0,0,0,0,0v-.07h0v.07l0,0h0v-.08h0v0a0,0,0,0,0,0,0s0,0,0,0h0v0h0V58.1h0Z"/><path id="ic_today_24px" data-name="ic today 24px" class="cls-4" d="M60.37,38.15H58.89v-3h-3v3H44.07v-3h-3v3H39.63a3,3,0,0,0-3,3h0V61.85a3,3,0,0,0,3,3H60.37a3,3,0,0,0,3-3V41.11A3,3,0,0,0,60.37,38.15Zm0,23.7H39.63V45.56H60.37ZM42.59,48.52H50v7.41H42.59Z"/></g></g></svg>