<svg xmlns="http://www.w3.org/2000/svg" viewBox="0 0 100 100"><defs><style>.cls-1{isolation:isolate;}.cls-2{fill:#fafafa;mix-blend-mode:multiply;}.cls-3{fill:#fdd835;}.cls-4{fill:#616161;}</style></defs><title>Icons</title><g class="cls-1"><g id="filter"><path class="cls-2" d="M31.51,88.58c13.23,2.64,13.87-7.65,19.22-15.94,6.36-9.84,13.35-7.22,23.8-9.9,12.42-3.19,18.69-19,14.09-31S71.23,12.3,58.46,11.11c-7.87-.73-17.53,1.95-19.52,9.6-1.42,5.47,1.74,11.58-.48,16.77-2.31,5.4-9.06,7-14.85,8C-2,49.86,12.59,84.8,31.51,88.58Z"/><path class="cls-3" d="M31.51,88.58c13.23,2.64,13.87-7.65,19.22-15.94,6.36-9.84,13.35-7.22,23.8-9.9,12.42-3.19,18.69-19,14.09-31S71.23,12.3,58.46,11.11c-7.87-.73-17.53,1.95-19.52,9.6-1.42,5.47,1.74,11.58-.48,16.77-2.31,5.4-9.06,7-14.85,8C-2,49.86,12.59,84.8,31.51,88.58Z"/></g><g id="filter_2" data-name="filter 2"><path class="cls-2" d="M15.45,84.27a14.21,14.21,0,0,0,14.23,1.6c4.75-2.17,8.18-7,13.27-8.16,6.46-1.52,12.64,2.91,19.09,2.67,5.24-.19,10.84-2.7,15.27-5.44,6.61-4.09,10.75-9.62,12-17.34,2.84-17.18-3-50.13-27-43.92A26.18,26.18,0,0,0,47.3,25c-4.17,6.45-5.91,14.39-10.86,20.26-4.05,4.8-9.83,7.72-15,11.24S11.19,64.77,10.17,71A14.21,14.21,0,0,0,15.45,84.27Z"/><path class="cls-3" d="M15.45,84.27a14.21,14.21,0,0,0,14.23,1.6c4.75-2.17,8.18-7,13.27-8.16,6.46-1.52,12.64,2.91,19.09,2.67,5.24-.19,10.84-2.7,15.27-5.44,6.61-4.09,10.75-9.62,12-17.34,2.84-17.18-3-50.13-27-43.92A26.18,26.18,0,0,0,47.3,25c-4.17,6.45-5.91,14.39-10.86,20.26-4.05,4.8-9.83,7.72-15,11.24S11.19,64.77,10.17,71A14.21,14.21,0,0,0,15.45,84.27Z"/></g><g id="filter_3" data-name="filter 3"><path class="cls-2" d="M20.23,88a19.77,19.77,0,0,0,18.61-.38c8.48-4.86,13.2-16,22.8-17.76,5.77-1.08,12,1.64,17.48-.44,24.15-9.15,5-72.11-27.48-57.28C32.8,20.72-9.36,72.58,20.23,88Z"/><path class="cls-3" d="M20.23,88a19.77,19.77,0,0,0,18.61-.38c8.48-4.86,13.2-16,22.8-17.76,5.77-1.08,12,1.64,17.48-.44,24.15-9.15,5-72.11-27.48-57.28C32.8,20.72-9.36,72.58,20.23,88Z"/></g><g id="filter_4" data-name="filter 4"><path class="cls-2" d="M15.45,84.27a14.21,14.21,0,0,0,14.23,1.6c4.75-2.17,8.18-7,13.27-8.16,6.46-1.52,12.64,2.91,19.09,2.67,5.24-.19,10.84-2.7,15.27-5.44,6.61-4.09,10.75-9.62,12-17.34,2.84-17.18-3-50.13-27-43.92A26.18,26.18,0,0,0,47.3,25c-4.17,6.45-5.91,14.39-10.86,20.26-4.05,4.8-9.83,7.72-15,11.24S11.19,64.77,10.17,71A14.21,14.21,0,0,0,15.45,84.27Z"/><path class="cls-3" d="M15.45,84.27a14.21,14.21,0,0,0,14.23,1.6c4.75-2.17,8.18-7,13.27-8.16,6.46-1.52,12.64,2.91,19.09,2.67,5.24-.19,10.84-2.7,15.27-5.44,6.61-4.09,10.75-9.62,12-17.34,2.84-17.18-3-50.13-27-43.92A26.18,26.18,0,0,0,47.3,25c-4.17,6.45-5.91,14.39-10.86,20.26-4.05,4.8-9.83,7.72-15,11.24S11.19,64.77,10.17,71A14.21,14.21,0,0,0,15.45,84.27Z"/></g><g id="Filter_Delete" data-name="Filter Delete"><path id="ic_close_24px" data-name="ic close 24px" class="cls-4" d="M71,29h0a3.3,3.3,0,0,0-4.67,0l-14,14a3.3,3.3,0,0,1-4.67,0l-14-14A3.3,3.3,0,0,0,29,29h0a3.3,3.3,0,0,0,0,4.67l14,14a3.3,3.3,0,0,1,0,4.67l-14,14A3.3,3.3,0,0,0,29,71h0a3.3,3.3,0,0,0,4.67,0l14-14a3.3,3.3,0,0,1,4.67,0l14,14A3.3,3.3,0,0,0,71,71h0a3.3,3.3,0,0,0,0-4.67l-14-14a3.3,3.3,0,0,1,0-4.67l14-14A3.3,3.3,0,0,0,71,29Z"/></g></g></svg>