<svg id="Layer_1" data-name="Layer 1" xmlns="http://www.w3.org/2000/svg" viewBox="0 0 94 94"><defs><style>.cls-1{fill:#fafafa;}.cls-2{fill:#fff;}.cls-3{fill:#e53935;}.cls-4,.cls-5{fill:none;stroke:#0288d1;stroke-miterlimit:10;}.cls-4{stroke-width:0.75px;}</style></defs><title>Like-01</title><g id="_6" data-name="6"><path class="cls-1" d="M53.1,35.3a6.77,6.77,0,0,0-5.7,3.2.57.57,0,0,1-1,0,6.43,6.43,0,0,0-5.5-3.2c-3.7,0-6.4,3.2-6.7,6.9a6.45,6.45,0,0,0,.2,2.6,11.55,11.55,0,0,0,3.5,5.9l8.6,7.8a.61.61,0,0,0,.8,0L56,50.7a11.55,11.55,0,0,0,3.5-5.9,6.45,6.45,0,0,0,.2-2.6C59.4,38.5,56.8,35.3,53.1,35.3Z"/><path class="cls-2" d="M53.1,35.3a6.77,6.77,0,0,0-5.7,3.2.57.57,0,0,1-1,0,6.43,6.43,0,0,0-5.5-3.2c-3.7,0-6.4,3.2-6.7,6.9a6.45,6.45,0,0,0,.2,2.6,11.55,11.55,0,0,0,3.5,5.9l8.6,7.8a.61.61,0,0,0,.8,0L56,50.7a11.55,11.55,0,0,0,3.5-5.9,6.45,6.45,0,0,0,.2-2.6C59.4,38.5,56.8,35.3,53.1,35.3Z"/><path class="cls-3" d="M53.1,35.3a6.77,6.77,0,0,0-5.7,3.2.57.57,0,0,1-1,0,6.43,6.43,0,0,0-5.5-3.2c-3.7,0-6.4,3.2-6.7,6.9a6.45,6.45,0,0,0,.2,2.6,11.55,11.55,0,0,0,3.5,5.9l8.6,7.8a.61.61,0,0,0,.8,0L56,50.7a11.55,11.55,0,0,0,3.5-5.9,6.45,6.45,0,0,0,.2-2.6C59.4,38.5,56.8,35.3,53.1,35.3Z"/></g><g id="_5" data-name="5"><path class="cls-1" d="M76.7,31.5c-1.9-4.1-6.6-6.3-9-10.1-2.9-4.5-2-9.3-.5-13.9A44.31,44.31,0,0,0,47,2.6h0a43.61,43.61,0,0,0-5.1.3c2.2,2.6,4.2,5.2,6.2,8,1.7,2.4,3.4,5.4,2.2,8.1-1,2.3-3.7,3.3-5.9,4.5-5.2,2.9-8.7,8.4-14.1,10.8-.1.4-.2.7-.3,1.1-.8,4.2,1.2,7.9,3.3,11.4,1.8,3.1,3.7,6.4,3.4,9.9-.1,2.2-1.1,4.3-1.1,6.5-.1,5.1,4.5,8.9,8.5,12s8.4,7.3,7.7,12.4a8.07,8.07,0,0,1-1.5,3.7,43.25,43.25,0,0,0,17.2-4.8l-.3-1.2c-.4-2.8,1-5.7.2-8.5-.6-2-2.2-3.5-3.2-5.3-2.1-4-.7-8.9,1.4-12.9a38.25,38.25,0,0,1,7.2-9.7A29.75,29.75,0,0,0,77.3,44c1-1.6.6-4.3.9-6.2A25.25,25.25,0,0,0,76.7,31.5Z"/><path class="cls-2" d="M76.7,31.5c-1.9-4.1-6.6-6.3-9-10.1-2.9-4.5-2-9.3-.5-13.9A44.31,44.31,0,0,0,47,2.6h0a43.61,43.61,0,0,0-5.1.3c2.2,2.6,4.2,5.2,6.2,8,1.7,2.4,3.4,5.4,2.2,8.1-1,2.3-3.7,3.3-5.9,4.5-5.2,2.9-8.7,8.4-14.1,10.8-.1.4-.2.7-.3,1.1-.8,4.2,1.2,7.9,3.3,11.4,1.8,3.1,3.7,6.4,3.4,9.9-.1,2.2-1.1,4.3-1.1,6.5-.1,5.1,4.5,8.9,8.5,12s8.4,7.3,7.7,12.4a8.07,8.07,0,0,1-1.5,3.7,43.25,43.25,0,0,0,17.2-4.8l-.3-1.2c-.4-2.8,1-5.7.2-8.5-.6-2-2.2-3.5-3.2-5.3-2.1-4-.7-8.9,1.4-12.9a38.25,38.25,0,0,1,7.2-9.7A29.75,29.75,0,0,0,77.3,44c1-1.6.6-4.3.9-6.2A25.25,25.25,0,0,0,76.7,31.5Z"/><path class="cls-4" d="M76.7,31.5c-1.9-4.1-6.6-6.3-9-10.1-2.9-4.5-2-9.3-.5-13.9A44.31,44.31,0,0,0,47,2.6h0a43.61,43.61,0,0,0-5.1.3c2.2,2.6,4.2,5.2,6.2,8,1.7,2.4,3.4,5.4,2.2,8.1-1,2.3-3.7,3.3-5.9,4.5-5.2,2.9-8.7,8.4-14.1,10.8-.1.4-.2.7-.3,1.1-.8,4.2,1.2,7.9,3.3,11.4,1.8,3.1,3.7,6.4,3.4,9.9-.1,2.2-1.1,4.3-1.1,6.5-.1,5.1,4.5,8.9,8.5,12s8.4,7.3,7.7,12.4a8.07,8.07,0,0,1-1.5,3.7,43.25,43.25,0,0,0,17.2-4.8l-.3-1.2c-.4-2.8,1-5.7.2-8.5-.6-2-2.2-3.5-3.2-5.3-2.1-4-.7-8.9,1.4-12.9a38.25,38.25,0,0,1,7.2-9.7A29.75,29.75,0,0,0,77.3,44c1-1.6.6-4.3.9-6.2A25.25,25.25,0,0,0,76.7,31.5Z"/><path class="cls-5" d="M46.4,38.5a.57.57,0,0,0,1,0,6.77,6.77,0,0,1,5.7-3.2c3.7,0,6.4,3.2,6.7,6.9a6.45,6.45,0,0,1-.2,2.6,11.55,11.55,0,0,1-3.5,5.9l-8.7,7.8a.61.61,0,0,1-.8,0L38,50.7a11.55,11.55,0,0,1-3.5-5.9,6.45,6.45,0,0,1-.2-2.6c.3-3.8,3-6.9,6.7-6.9A6.27,6.27,0,0,1,46.4,38.5Z"/></g><g id="_4" data-name="4"><path class="cls-1" d="M76.7,31.5c-1.9-4.1-6.6-6.3-9-10.1-2.9-4.5-2-9.3-.5-13.9A44.31,44.31,0,0,0,47,2.6h0a43.61,43.61,0,0,0-5.1.3c2.2,2.6,4.2,5.2,6.2,8,1.7,2.4,3.4,5.4,2.2,8.1-1,2.3-3.7,3.3-5.9,4.5-5.3,3-8.9,8.7-14.6,11-3.1,1.3-6.8,1.4-9.5,3.5a11.22,11.22,0,0,0-3.9,6.8c-.2,1.2-.3,3.6-.7,6.1.2.9.4,1.7.6,2.6.4,2.7.4,5.4,1.7,7.8s3.5,4.1,4.7,6.5c2.2,4.5-.3,9.7-3,14a44.39,44.39,0,0,0,27.4,9.5h0a43.66,43.66,0,0,0,20.4-5l-.3-1.2c-.4-2.8,1-5.7.2-8.5-.6-2-2.2-3.5-3.2-5.3-2.1-4-.7-8.9,1.4-12.9a38.25,38.25,0,0,1,7.2-9.7,29.75,29.75,0,0,0,4.5-4.9c1-1.6.6-4.3.9-6.2A25.92,25.92,0,0,0,76.7,31.5Z"/><path class="cls-2" d="M76.7,31.5c-1.9-4.1-6.6-6.3-9-10.1-2.9-4.5-2-9.3-.5-13.9A44.31,44.31,0,0,0,47,2.6h0a43.61,43.61,0,0,0-5.1.3c2.2,2.6,4.2,5.2,6.2,8,1.7,2.4,3.4,5.4,2.2,8.1-1,2.3-3.7,3.3-5.9,4.5-5.3,3-8.9,8.7-14.6,11-3.1,1.3-6.8,1.4-9.5,3.5a11.22,11.22,0,0,0-3.9,6.8c-.2,1.2-.3,3.6-.7,6.1.2.9.4,1.7.6,2.6.4,2.7.4,5.4,1.7,7.8s3.5,4.1,4.7,6.5c2.2,4.5-.3,9.7-3,14a44.39,44.39,0,0,0,27.4,9.5h0a43.66,43.66,0,0,0,20.4-5l-.3-1.2c-.4-2.8,1-5.7.2-8.5-.6-2-2.2-3.5-3.2-5.3-2.1-4-.7-8.9,1.4-12.9a38.25,38.25,0,0,1,7.2-9.7,29.75,29.75,0,0,0,4.5-4.9c1-1.6.6-4.3.9-6.2A25.92,25.92,0,0,0,76.7,31.5Z"/><path class="cls-4" d="M76.7,31.5c-1.9-4.1-6.6-6.3-9-10.1-2.9-4.5-2-9.3-.5-13.9A44.31,44.31,0,0,0,47,2.6h0a43.61,43.61,0,0,0-5.1.3c2.2,2.6,4.2,5.2,6.2,8,1.7,2.4,3.4,5.4,2.2,8.1-1,2.3-3.7,3.3-5.9,4.5-5.3,3-8.9,8.7-14.6,11-3.1,1.3-6.8,1.4-9.5,3.5a11.22,11.22,0,0,0-3.9,6.8c-.2,1.2-.3,3.6-.7,6.1.2.9.4,1.7.6,2.6.4,2.7.4,5.4,1.7,7.8s3.5,4.1,4.7,6.5c2.2,4.5-.3,9.7-3,14a44.39,44.39,0,0,0,27.4,9.5h0a43.66,43.66,0,0,0,20.4-5l-.3-1.2c-.4-2.8,1-5.7.2-8.5-.6-2-2.2-3.5-3.2-5.3-2.1-4-.7-8.9,1.4-12.9a38.25,38.25,0,0,1,7.2-9.7,29.75,29.75,0,0,0,4.5-4.9c1-1.6.6-4.3.9-6.2A25.92,25.92,0,0,0,76.7,31.5Z"/><path class="cls-5" d="M46.4,38.5a.57.57,0,0,0,1,0,6.77,6.77,0,0,1,5.7-3.2c3.7,0,6.4,3.2,6.7,6.9a6.45,6.45,0,0,1-.2,2.6,11.55,11.55,0,0,1-3.5,5.9l-8.7,7.8a.61.61,0,0,1-.8,0L38,50.7a11.55,11.55,0,0,1-3.5-5.9,6.45,6.45,0,0,1-.2-2.6c.3-3.8,3-6.9,6.7-6.9A6.27,6.27,0,0,1,46.4,38.5Z"/></g><g id="_3" data-name="3"><path class="cls-1" d="M67.1,85.2c-.4-2.8,1-5.7.2-8.5-.6-2-2.2-3.5-3.2-5.3-2.1-4-.7-8.9,1.4-12.9a38.25,38.25,0,0,1,7.2-9.7,29.75,29.75,0,0,0,4.5-4.9c1-1.6.6-4.3.9-6.2a23,23,0,0,0-1.4-6.3c-1.9-4.1-6.6-6.3-9-10.1-2.9-4.5-2-9.3-.5-13.9A44.31,44.31,0,0,0,47,2.5h0A44.32,44.32,0,0,0,4.1,35.7c1.1.8,2.3,1.5,3.4,2.4a25.55,25.55,0,0,1,8.9,15.3c.4,2.7.4,5.4,1.7,7.8s3.5,4.1,4.7,6.5c2.2,4.5-.3,9.7-3,14a44.39,44.39,0,0,0,27.4,9.5h0a43.66,43.66,0,0,0,20.4-5A1.6,1.6,0,0,1,67.1,85.2Z"/><path class="cls-2" d="M67.1,85.2c-.4-2.8,1-5.7.2-8.5-.6-2-2.2-3.5-3.2-5.3-2.1-4-.7-8.9,1.4-12.9a38.25,38.25,0,0,1,7.2-9.7,29.75,29.75,0,0,0,4.5-4.9c1-1.6.6-4.3.9-6.2a23,23,0,0,0-1.4-6.3c-1.9-4.1-6.6-6.3-9-10.1-2.9-4.5-2-9.3-.5-13.9A44.31,44.31,0,0,0,47,2.5h0A44.32,44.32,0,0,0,4.1,35.7c1.1.8,2.3,1.5,3.4,2.4a25.55,25.55,0,0,1,8.9,15.3c.4,2.7.4,5.4,1.7,7.8s3.5,4.1,4.7,6.5c2.2,4.5-.3,9.7-3,14a44.39,44.39,0,0,0,27.4,9.5h0a43.66,43.66,0,0,0,20.4-5A1.6,1.6,0,0,1,67.1,85.2Z"/><path class="cls-4" d="M67.1,85.2c-.4-2.8,1-5.7.2-8.5-.6-2-2.2-3.5-3.2-5.3-2.1-4-.7-8.9,1.4-12.9a38.25,38.25,0,0,1,7.2-9.7,29.75,29.75,0,0,0,4.5-4.9c1-1.6.6-4.3.9-6.2a23,23,0,0,0-1.4-6.3c-1.9-4.1-6.6-6.3-9-10.1-2.9-4.5-2-9.3-.5-13.9A44.31,44.31,0,0,0,47,2.5h0A44.32,44.32,0,0,0,4.1,35.7c1.1.8,2.3,1.5,3.4,2.4a25.55,25.55,0,0,1,8.9,15.3c.4,2.7.4,5.4,1.7,7.8s3.5,4.1,4.7,6.5c2.2,4.5-.3,9.7-3,14a44.39,44.39,0,0,0,27.4,9.5h0a43.66,43.66,0,0,0,20.4-5A1.6,1.6,0,0,1,67.1,85.2Z"/><path class="cls-5" d="M46.4,38.5a.57.57,0,0,0,1,0,6.77,6.77,0,0,1,5.7-3.2c3.7,0,6.4,3.2,6.7,6.9a6.45,6.45,0,0,1-.2,2.6,11.55,11.55,0,0,1-3.5,5.9l-8.7,7.8a.61.61,0,0,1-.8,0L38,50.7a11.55,11.55,0,0,1-3.5-5.9,6.45,6.45,0,0,1-.2-2.6c.3-3.8,3-6.9,6.7-6.9A6.27,6.27,0,0,1,46.4,38.5Z"/></g><g id="_2" data-name="2"><path class="cls-1" d="M79,41.7c-1.2-3.3-.8-7-2.3-10.2-1.9-4.1-6.6-6.3-9-10.1-2.9-4.5-2-9.3-.5-13.9A44.31,44.31,0,0,0,47,2.6h0A44.32,44.32,0,0,0,4.1,35.8c1.1.8,2.3,1.5,3.4,2.4a25.55,25.55,0,0,1,8.9,15.3c.4,2.7.4,5.4,1.7,7.8s3.5,4.1,4.7,6.5c2.2,4.5-.3,9.7-3,14a44.39,44.39,0,0,0,27.4,9.5h0A44.29,44.29,0,0,0,91.5,47.8,10.55,10.55,0,0,1,79,41.7Z"/><path class="cls-2" d="M79,41.7c-1.2-3.3-.8-7-2.3-10.2-1.9-4.1-6.6-6.3-9-10.1-2.9-4.5-2-9.3-.5-13.9A44.31,44.31,0,0,0,47,2.6h0A44.32,44.32,0,0,0,4.1,35.8c1.1.8,2.3,1.5,3.4,2.4a25.55,25.55,0,0,1,8.9,15.3c.4,2.7.4,5.4,1.7,7.8s3.5,4.1,4.7,6.5c2.2,4.5-.3,9.7-3,14a44.39,44.39,0,0,0,27.4,9.5h0A44.29,44.29,0,0,0,91.5,47.8,10.55,10.55,0,0,1,79,41.7Z"/><path class="cls-4" d="M79,41.7c-1.2-3.3-.8-7-2.3-10.2-1.9-4.1-6.6-6.3-9-10.1-2.9-4.5-2-9.3-.5-13.9A44.31,44.31,0,0,0,47,2.6h0A44.32,44.32,0,0,0,4.1,35.8c1.1.8,2.3,1.5,3.4,2.4a25.55,25.55,0,0,1,8.9,15.3c.4,2.7.4,5.4,1.7,7.8s3.5,4.1,4.7,6.5c2.2,4.5-.3,9.7-3,14a44.39,44.39,0,0,0,27.4,9.5h0A44.29,44.29,0,0,0,91.5,47.8,10.55,10.55,0,0,1,79,41.7Z"/><path class="cls-5" d="M46.4,38.5a.57.57,0,0,0,1,0,6.77,6.77,0,0,1,5.7-3.2c3.7,0,6.4,3.2,6.7,6.9a6.45,6.45,0,0,1-.2,2.6,11.55,11.55,0,0,1-3.5,5.9l-8.7,7.8a.61.61,0,0,1-.8,0L38,50.7a11.55,11.55,0,0,1-3.5-5.9,6.45,6.45,0,0,1-.2-2.6c.3-3.8,3-6.9,6.7-6.9A6.27,6.27,0,0,1,46.4,38.5Z"/></g><g id="_1" data-name="1"><path class="cls-1" d="M79,41.7c-1.2-3.3-.8-7-2.3-10.2-1.9-4.1-6.6-6.3-9-10.1-2.9-4.5-2-9.3-.5-13.9A44.31,44.31,0,0,0,47,2.6h0A44.43,44.43,0,0,0,2.6,47h0A44.43,44.43,0,0,0,47,91.4h0A44.29,44.29,0,0,0,91.3,47.9,10.58,10.58,0,0,1,79,41.7Z"/><path class="cls-2" d="M79,41.7c-1.2-3.3-.8-7-2.3-10.2-1.9-4.1-6.6-6.3-9-10.1-2.9-4.5-2-9.3-.5-13.9A44.31,44.31,0,0,0,47,2.6h0A44.43,44.43,0,0,0,2.6,47h0A44.43,44.43,0,0,0,47,91.4h0A44.29,44.29,0,0,0,91.3,47.9,10.58,10.58,0,0,1,79,41.7Z"/><path class="cls-4" d="M79,41.7c-1.2-3.3-.8-7-2.3-10.2-1.9-4.1-6.6-6.3-9-10.1-2.9-4.5-2-9.3-.5-13.9A44.31,44.31,0,0,0,47,2.6h0A44.43,44.43,0,0,0,2.6,47h0A44.43,44.43,0,0,0,47,91.4h0A44.29,44.29,0,0,0,91.3,47.9,10.58,10.58,0,0,1,79,41.7Z"/><path class="cls-5" d="M46.4,38.5a.57.57,0,0,0,1,0,6.77,6.77,0,0,1,5.7-3.2c3.7,0,6.4,3.2,6.7,6.9a6.45,6.45,0,0,1-.2,2.6,11.55,11.55,0,0,1-3.5,5.9l-8.7,7.8a.61.61,0,0,1-.8,0L38,50.7a11.55,11.55,0,0,1-3.5-5.9,6.45,6.45,0,0,1-.2-2.6c.3-3.8,3-6.9,6.7-6.9A6.27,6.27,0,0,1,46.4,38.5Z"/></g><g id="_0" data-name="0"><path class="cls-1" d="M91.4,47A44.43,44.43,0,0,1,47,91.4h0A44.43,44.43,0,0,1,2.6,47h0A44.43,44.43,0,0,1,47,2.6h0A44.43,44.43,0,0,1,91.4,47Z"/><path class="cls-2" d="M91.4,47A44.43,44.43,0,0,1,47,91.4h0A44.43,44.43,0,0,1,2.6,47h0A44.43,44.43,0,0,1,47,2.6h0A44.43,44.43,0,0,1,91.4,47Z"/><path class="cls-4" d="M91.4,47A44.43,44.43,0,0,1,47,91.4h0A44.43,44.43,0,0,1,2.6,47h0A44.43,44.43,0,0,1,47,2.6h0A44.43,44.43,0,0,1,91.4,47Z"/><path class="cls-5" d="M46.4,38.5a.57.57,0,0,0,1,0,6.77,6.77,0,0,1,5.7-3.2c3.7,0,6.4,3.2,6.7,6.9a6.45,6.45,0,0,1-.2,2.6,11.55,11.55,0,0,1-3.5,5.9l-8.7,7.8a.61.61,0,0,1-.8,0L38,50.7a11.55,11.55,0,0,1-3.5-5.9,6.45,6.45,0,0,1-.2-2.6c.3-3.8,3-6.9,6.7-6.9A6.27,6.27,0,0,1,46.4,38.5Z"/></g></svg>