<svg xmlns="http://www.w3.org/2000/svg" viewBox="0 0 100 100"><defs><style>.cls-1{isolation:isolate;}.cls-2{fill:#fafafa;mix-blend-mode:multiply;}.cls-3{fill:#fdd835;}.cls-4{fill:#757575;}</style></defs><title>Icons</title><g class="cls-1"><g id="Story_Item_1" data-name="Story Item 1"><path class="cls-2" d="M21.5,78.27a11.72,11.72,0,0,0,11.74,1.32c3.92-1.79,6.75-5.74,10.95-6.73,5.33-1.26,10.43,2.4,15.75,2.2,4.32-.16,8.94-2.23,12.6-4.49,5.45-3.37,8.87-7.94,9.92-14.31C84.8,42.1,80,14.92,60.17,20a21.6,21.6,0,0,0-12.39,9.33c-3.44,5.32-4.87,11.87-9,16.72-3.34,4-8.11,6.37-12.4,9.27S18,62.18,17.14,67.29A11.72,11.72,0,0,0,21.5,78.27Z"/><path class="cls-3" d="M21.5,78.27a11.72,11.72,0,0,0,11.74,1.32c3.92-1.79,6.75-5.74,10.95-6.73,5.33-1.26,10.43,2.4,15.75,2.2,4.32-.16,8.94-2.23,12.6-4.49,5.45-3.37,8.87-7.94,9.92-14.31C84.8,42.1,80,14.92,60.17,20a21.6,21.6,0,0,0-12.39,9.33c-3.44,5.32-4.87,11.87-9,16.72-3.34,4-8.11,6.37-12.4,9.27S18,62.18,17.14,67.29A11.72,11.72,0,0,0,21.5,78.27Z"/><path class="cls-4" d="M68.33,43c-.48-5.42-4.31-10-9.62-10a9.62,9.62,0,0,0-8.82,6,9.32,9.32,0,0,0-8.6-6c-5.31,0-9.14,4.54-9.62,10A9.91,9.91,0,0,0,32,46.81a16.64,16.64,0,0,0,5.07,8.46L49.89,66.92,62.94,55.27A16.65,16.65,0,0,0,68,46.81,9.91,9.91,0,0,0,68.33,43Z"/></g></g></svg>