<svg xmlns="http://www.w3.org/2000/svg" viewBox="0 0 218 218"><defs><style>.cls-1{fill:#424242;}</style></defs><title>Icons</title><g id="Menu"><path id="ic_menu_24px" data-name="ic menu 24px" class="cls-1" d="M40.56,160.33H151.78a8.56,8.56,0,0,0,8.56-8.56h0a8.56,8.56,0,0,0-8.56-8.56H40.56A8.56,8.56,0,0,0,32,151.78h0A8.56,8.56,0,0,0,40.56,160.33Zm0-42.78H177.44A8.56,8.56,0,0,0,186,109h0a8.56,8.56,0,0,0-8.56-8.56H40.56A8.56,8.56,0,0,0,32,109h0A8.56,8.56,0,0,0,40.56,117.56ZM32,66.22h0a8.56,8.56,0,0,0,8.56,8.56h77.86A8.56,8.56,0,0,0,127,66.22h0a8.56,8.56,0,0,0-8.56-8.56H40.56A8.56,8.56,0,0,0,32,66.22Z"/></g></svg>